<mxfile host="app.diagrams.net" modified="2020-12-04T13:56:24.983Z" agent="5.0 (Windows NT 10.0; Win64; x64) AppleWebKit/537.36 (KHTML, like Gecko) Chrome/86.0.4240.198 Safari/537.36" etag="WeICPI2B8ouZJaa55C4N" version="13.10.8" type="github">
  <diagram id="q-yW9oJektnewP8rP_pg" name="Page-1">
    <mxGraphModel dx="866" dy="1691" grid="1" gridSize="10" guides="1" tooltips="1" connect="1" arrows="1" fold="1" page="1" pageScale="1" pageWidth="827" pageHeight="1169" math="0" shadow="0">
      <root>
        <mxCell id="0" />
        <mxCell id="1" parent="0" />
        <mxCell id="ZxFBbn3Sqx3XXxOfAMO--1" value="Quản lý&amp;nbsp;" style="html=1;dashed=0;whitespace=wrap;" parent="1" vertex="1">
          <mxGeometry x="270" y="210" width="100" height="50" as="geometry" />
        </mxCell>
        <mxCell id="ZxFBbn3Sqx3XXxOfAMO--13" style="rounded=0;orthogonalLoop=1;jettySize=auto;html=1;entryX=0.25;entryY=0;entryDx=0;entryDy=0;exitX=0.448;exitY=1.057;exitDx=0;exitDy=0;exitPerimeter=0;" parent="1" source="tuHRdNgfjhMjAiRyUXfh-6" target="ZxFBbn3Sqx3XXxOfAMO--1" edge="1">
          <mxGeometry relative="1" as="geometry">
            <mxPoint x="200" y="130" as="sourcePoint" />
          </mxGeometry>
        </mxCell>
        <mxCell id="ZxFBbn3Sqx3XXxOfAMO--12" style="rounded=0;orthogonalLoop=1;jettySize=auto;html=1;entryX=0.75;entryY=0;entryDx=0;entryDy=0;exitX=0.528;exitY=1.014;exitDx=0;exitDy=0;exitPerimeter=0;" parent="1" source="tuHRdNgfjhMjAiRyUXfh-4" target="ZxFBbn3Sqx3XXxOfAMO--1" edge="1">
          <mxGeometry relative="1" as="geometry">
            <mxPoint x="425" y="130" as="sourcePoint" />
          </mxGeometry>
        </mxCell>
        <mxCell id="ZxFBbn3Sqx3XXxOfAMO--10" style="rounded=0;orthogonalLoop=1;jettySize=auto;html=1;entryX=0.18;entryY=1.051;entryDx=0;entryDy=0;entryPerimeter=0;exitX=0.5;exitY=0;exitDx=0;exitDy=0;" parent="1" source="tuHRdNgfjhMjAiRyUXfh-7" target="ZxFBbn3Sqx3XXxOfAMO--1" edge="1">
          <mxGeometry relative="1" as="geometry">
            <mxPoint x="201.90914007571655" y="330" as="sourcePoint" />
          </mxGeometry>
        </mxCell>
        <mxCell id="ZxFBbn3Sqx3XXxOfAMO--11" style="rounded=0;orthogonalLoop=1;jettySize=auto;html=1;entryX=0.75;entryY=1;entryDx=0;entryDy=0;exitX=0.5;exitY=0;exitDx=0;exitDy=0;" parent="1" source="tuHRdNgfjhMjAiRyUXfh-1" target="ZxFBbn3Sqx3XXxOfAMO--1" edge="1">
          <mxGeometry relative="1" as="geometry" />
        </mxCell>
        <mxCell id="ZxFBbn3Sqx3XXxOfAMO--19" style="edgeStyle=none;rounded=0;orthogonalLoop=1;jettySize=auto;html=1;entryX=0.5;entryY=0;entryDx=0;entryDy=0;" parent="1" source="ZxFBbn3Sqx3XXxOfAMO--14" target="tuHRdNgfjhMjAiRyUXfh-5" edge="1">
          <mxGeometry relative="1" as="geometry">
            <mxPoint x="175" y="80" as="targetPoint" />
          </mxGeometry>
        </mxCell>
        <mxCell id="ZxFBbn3Sqx3XXxOfAMO--14" value="Phiếu nhập hàng" style="html=1;dashed=0;whitespace=wrap;shape=partialRectangle;right=0;left=0;" parent="1" vertex="1">
          <mxGeometry x="125" y="-30" width="100" height="30" as="geometry" />
        </mxCell>
        <mxCell id="ZxFBbn3Sqx3XXxOfAMO--18" style="edgeStyle=none;rounded=0;orthogonalLoop=1;jettySize=auto;html=1;entryX=0.507;entryY=1.043;entryDx=0;entryDy=0;entryPerimeter=0;" parent="1" source="ZxFBbn3Sqx3XXxOfAMO--15" target="tuHRdNgfjhMjAiRyUXfh-2" edge="1">
          <mxGeometry relative="1" as="geometry" />
        </mxCell>
        <mxCell id="ZxFBbn3Sqx3XXxOfAMO--15" value="Hóa đơn" style="html=1;dashed=0;whitespace=wrap;shape=partialRectangle;right=0;left=0;" parent="1" vertex="1">
          <mxGeometry x="364" y="460" width="100" height="30" as="geometry" />
        </mxCell>
        <mxCell id="ZxFBbn3Sqx3XXxOfAMO--21" style="edgeStyle=none;rounded=0;orthogonalLoop=1;jettySize=auto;html=1;entryX=0.5;entryY=0;entryDx=0;entryDy=0;" parent="1" source="ZxFBbn3Sqx3XXxOfAMO--16" target="tuHRdNgfjhMjAiRyUXfh-3" edge="1">
          <mxGeometry relative="1" as="geometry">
            <mxPoint x="450" y="80" as="targetPoint" />
          </mxGeometry>
        </mxCell>
        <mxCell id="ZxFBbn3Sqx3XXxOfAMO--16" value="Phiếu trả hàng" style="html=1;dashed=0;whitespace=wrap;shape=partialRectangle;right=0;left=0;" parent="1" vertex="1">
          <mxGeometry x="414" y="-30" width="100" height="30" as="geometry" />
        </mxCell>
        <mxCell id="tuHRdNgfjhMjAiRyUXfh-13" style="edgeStyle=orthogonalEdgeStyle;rounded=0;orthogonalLoop=1;jettySize=auto;html=1;exitX=0.5;exitY=0;exitDx=0;exitDy=0;entryX=0.466;entryY=1.029;entryDx=0;entryDy=0;entryPerimeter=0;" edge="1" parent="1" source="ZxFBbn3Sqx3XXxOfAMO--17" target="tuHRdNgfjhMjAiRyUXfh-8">
          <mxGeometry relative="1" as="geometry" />
        </mxCell>
        <mxCell id="ZxFBbn3Sqx3XXxOfAMO--17" value="Phiếu đặt hàng" style="html=1;dashed=0;whitespace=wrap;shape=partialRectangle;right=0;left=0;" parent="1" vertex="1">
          <mxGeometry x="120" y="530" width="100" height="40" as="geometry" />
        </mxCell>
        <mxCell id="ZxFBbn3Sqx3XXxOfAMO--22" value="Thông tin phiếu nhập hàng" style="text;html=1;strokeColor=none;fillColor=none;align=center;verticalAlign=middle;whiteSpace=wrap;rounded=0;" parent="1" vertex="1">
          <mxGeometry x="140" y="170" width="110" height="20" as="geometry" />
        </mxCell>
        <mxCell id="ZxFBbn3Sqx3XXxOfAMO--23" value="Thông tin phiếu trả hàng" style="text;html=1;strokeColor=none;fillColor=none;align=center;verticalAlign=middle;whiteSpace=wrap;rounded=0;" parent="1" vertex="1">
          <mxGeometry x="391.5" y="190" width="110" height="20" as="geometry" />
        </mxCell>
        <mxCell id="ZxFBbn3Sqx3XXxOfAMO--25" value="Thông tin phiếu đặt hàng" style="text;html=1;strokeColor=none;fillColor=none;align=center;verticalAlign=middle;whiteSpace=wrap;rounded=0;" parent="1" vertex="1">
          <mxGeometry x="125" y="280" width="110" height="20" as="geometry" />
        </mxCell>
        <mxCell id="ZxFBbn3Sqx3XXxOfAMO--26" value="Thông tin hóa đơn" style="text;html=1;strokeColor=none;fillColor=none;align=center;verticalAlign=middle;whiteSpace=wrap;rounded=0;" parent="1" vertex="1">
          <mxGeometry x="420" y="290" width="110" height="20" as="geometry" />
        </mxCell>
        <mxCell id="tuHRdNgfjhMjAiRyUXfh-1" value="7.3" style="swimlane;childLayout=stackLayout;horizontal=1;startSize=30;horizontalStack=0;rounded=1;fontSize=14;fontStyle=0;strokeWidth=2;resizeParent=0;resizeLast=1;shadow=0;dashed=0;align=center;" vertex="1" parent="1">
          <mxGeometry x="344" y="320" width="140" height="100" as="geometry" />
        </mxCell>
        <mxCell id="tuHRdNgfjhMjAiRyUXfh-2" value="&lt;font style=&quot;font-size: 18px&quot;&gt;Danh mục &lt;br&gt;phiếu hóa đơn&lt;/font&gt;" style="text;html=1;align=center;verticalAlign=middle;resizable=0;points=[];autosize=1;fontSize=15;" vertex="1" parent="tuHRdNgfjhMjAiRyUXfh-1">
          <mxGeometry y="30" width="140" height="70" as="geometry" />
        </mxCell>
        <mxCell id="tuHRdNgfjhMjAiRyUXfh-3" value="7.2" style="swimlane;childLayout=stackLayout;horizontal=1;startSize=30;horizontalStack=0;rounded=1;fontSize=14;fontStyle=0;strokeWidth=2;resizeParent=0;resizeLast=1;shadow=0;dashed=0;align=center;" vertex="1" parent="1">
          <mxGeometry x="391.5" y="40" width="145" height="100" as="geometry" />
        </mxCell>
        <mxCell id="tuHRdNgfjhMjAiRyUXfh-4" value="&lt;span style=&quot;font-size: 18px&quot;&gt;Danh mục phiếu&amp;nbsp;&lt;br&gt;trả hàng&lt;br&gt;&lt;/span&gt;" style="text;html=1;align=center;verticalAlign=middle;resizable=0;points=[];autosize=1;fontSize=15;" vertex="1" parent="tuHRdNgfjhMjAiRyUXfh-3">
          <mxGeometry y="30" width="145" height="70" as="geometry" />
        </mxCell>
        <mxCell id="tuHRdNgfjhMjAiRyUXfh-5" value="7.1" style="swimlane;childLayout=stackLayout;horizontal=1;startSize=30;horizontalStack=0;rounded=1;fontSize=14;fontStyle=0;strokeWidth=2;resizeParent=0;resizeLast=1;shadow=0;dashed=0;align=center;" vertex="1" parent="1">
          <mxGeometry x="105" y="40" width="145" height="100" as="geometry" />
        </mxCell>
        <mxCell id="tuHRdNgfjhMjAiRyUXfh-6" value="&lt;span style=&quot;font-size: 18px&quot;&gt;Danh mục phiếu&lt;br&gt;&lt;/span&gt;nhập hàng" style="text;html=1;align=center;verticalAlign=middle;resizable=0;points=[];autosize=1;fontSize=15;" vertex="1" parent="tuHRdNgfjhMjAiRyUXfh-5">
          <mxGeometry y="30" width="145" height="70" as="geometry" />
        </mxCell>
        <mxCell id="tuHRdNgfjhMjAiRyUXfh-7" value="7.4" style="swimlane;childLayout=stackLayout;horizontal=1;startSize=30;horizontalStack=0;rounded=1;fontSize=14;fontStyle=0;strokeWidth=2;resizeParent=0;resizeLast=1;shadow=0;dashed=0;align=center;" vertex="1" parent="1">
          <mxGeometry x="102.5" y="340" width="145" height="100" as="geometry" />
        </mxCell>
        <mxCell id="tuHRdNgfjhMjAiRyUXfh-8" value="&lt;span style=&quot;font-size: 18px&quot;&gt;Danh mục phiếu&lt;br&gt;&amp;nbsp;đặt hàng&lt;/span&gt;" style="text;html=1;align=center;verticalAlign=middle;resizable=0;points=[];autosize=1;fontSize=15;" vertex="1" parent="tuHRdNgfjhMjAiRyUXfh-7">
          <mxGeometry y="30" width="145" height="70" as="geometry" />
        </mxCell>
      </root>
    </mxGraphModel>
  </diagram>
</mxfile>
